<svg width="1440" height="865" viewBox="0 0 1440 865" fill="none" xmlns="http://www.w3.org/2000/svg">
<ellipse cx="1629.08" cy="1417.59" rx="1629.08" ry="1417.59" transform="matrix(-0.979668 0.200626 -0.2469 -0.969041 1974.92 720.619)" fill="url(#paint0_linear_323_262)"/>
<ellipse cx="1108.73" cy="1153.49" rx="1108.73" ry="1153.49" transform="matrix(-0.944374 0.328874 -0.373328 -0.9277 1380.25 55.2415)" fill="url(#paint1_linear_323_262)"/>
<rect x="-19" y="-83" width="1437" height="1253" fill="url(#paint2_linear_323_262)"/>
<g filter="url(#filter0_i_323_262)">
<ellipse cx="1188.4" cy="1228.27" rx="1188.4" ry="1228.27" transform="matrix(-0.979668 0.200626 -0.2469 -0.969041 1177 73.4912)" fill="url(#paint3_linear_323_262)"/>
</g>
<ellipse cx="1404.96" cy="1098.11" rx="1212.56" ry="1264.15" fill="url(#paint4_linear_323_262)"/>
<g filter="url(#filter1_i_323_262)">
<ellipse cx="1595.42" cy="1237.73" rx="1081.28" ry="1095.7" fill="url(#paint5_linear_323_262)"/>
</g>
<path d="M1260.77 1246.43C1218.21 1214.11 1182.94 1173.19 1157.26 1126.32C1131.58 1079.45 1116.07 1027.69 1111.75 974.424C1107.42 921.157 1114.38 867.577 1132.16 817.179C1149.94 766.782 1178.15 720.699 1214.94 681.939C1251.73 643.178 1296.28 612.611 1345.69 592.231C1395.09 571.851 1448.24 562.116 1501.66 563.662C1555.08 565.208 1607.57 578 1655.71 601.203C1703.86 624.406 1746.56 657.499 1781.05 698.323C1815.54 739.146 1592.87 835.985 1490.66 943.66C1388.45 1051.34 1303.34 1278.75 1260.77 1246.43Z" fill="url(#paint6_linear_323_262)"/>
<defs>
<filter id="filter0_i_323_262" x="-1493.88" y="-2092.45" width="2406.76" height="2470.74" filterUnits="userSpaceOnUse" color-interpolation-filters="sRGB">
<feFlood flood-opacity="0" result="BackgroundImageFix"/>
<feBlend mode="normal" in="SourceGraphic" in2="BackgroundImageFix" result="shape"/>
<feColorMatrix in="SourceAlpha" type="matrix" values="0 0 0 0 0 0 0 0 0 0 0 0 0 0 0 0 0 0 127 0" result="hardAlpha"/>
<feOffset dy="42.4926"/>
<feGaussianBlur stdDeviation="32.7041"/>
<feComposite in2="hardAlpha" operator="arithmetic" k2="-1" k3="1"/>
<feColorMatrix type="matrix" values="0 0 0 0 1 0 0 0 0 1 0 0 0 0 1 0 0 0 1 0"/>
<feBlend mode="normal" in2="shape" result="effect1_innerShadow_323_262"/>
</filter>
<filter id="filter1_i_323_262" x="514.131" y="142.028" width="2188.37" height="2197.47" filterUnits="userSpaceOnUse" color-interpolation-filters="sRGB">
<feFlood flood-opacity="0" result="BackgroundImageFix"/>
<feBlend mode="normal" in="SourceGraphic" in2="BackgroundImageFix" result="shape"/>
<feColorMatrix in="SourceAlpha" type="matrix" values="0 0 0 0 0 0 0 0 0 0 0 0 0 0 0 0 0 0 127 0" result="hardAlpha"/>
<feOffset dx="25.7991" dy="6.07037"/>
<feGaussianBlur stdDeviation="37.0293"/>
<feComposite in2="hardAlpha" operator="arithmetic" k2="-1" k3="1"/>
<feColorMatrix type="matrix" values="0 0 0 0 1 0 0 0 0 0.895833 0 0 0 0 0.895833 0 0 0 0.25 0"/>
<feBlend mode="normal" in2="shape" result="effect1_innerShadow_323_262"/>
</filter>
<linearGradient id="paint0_linear_323_262" x1="1629.08" y1="0" x2="1629.08" y2="2835.18" gradientUnits="userSpaceOnUse">
<stop stop-color="#1B56FD"/>
<stop offset="0.307692" stop-color="#0118D8"/>
<stop offset="1" stop-color="#3FC7F4"/>
</linearGradient>
<linearGradient id="paint1_linear_323_262" x1="1108.73" y1="0" x2="1108.73" y2="2306.98" gradientUnits="userSpaceOnUse">
<stop stop-color="#1B56FD"/>
<stop offset="0.307692" stop-color="#0118D8"/>
<stop offset="1" stop-color="#3FC7F4"/>
</linearGradient>
<linearGradient id="paint2_linear_323_262" x1="699.5" y1="-82.9999" x2="-783.262" y2="1868.37" gradientUnits="userSpaceOnUse">
<stop stop-color="#3FC7F4"/>
<stop offset="1" stop-color="#0118D8"/>
</linearGradient>
<linearGradient id="paint3_linear_323_262" x1="1188.4" y1="0" x2="1188.4" y2="2456.54" gradientUnits="userSpaceOnUse">
<stop stop-color="#1B56FD"/>
<stop offset="0.307692" stop-color="#0118D8"/>
<stop offset="1" stop-color="#3FC7F4"/>
</linearGradient>
<linearGradient id="paint4_linear_323_262" x1="1404.96" y1="-166.044" x2="1404.96" y2="2362.27" gradientUnits="userSpaceOnUse">
<stop stop-color="#1B56FD"/>
<stop offset="0.307692" stop-color="#0118D8"/>
<stop offset="1" stop-color="#3FC7F4"/>
</linearGradient>
<linearGradient id="paint5_linear_323_262" x1="1595.42" y1="142.028" x2="1595.42" y2="2333.43" gradientUnits="userSpaceOnUse">
<stop stop-color="#1B56FD"/>
<stop offset="0.307692" stop-color="#0118D8"/>
<stop offset="1" stop-color="#3FC7F4"/>
</linearGradient>
<linearGradient id="paint6_linear_323_262" x1="1607.42" y1="554.99" x2="1147.64" y2="1160.54" gradientUnits="userSpaceOnUse">
<stop stop-color="#3FC7F4"/>
<stop offset="1" stop-color="#0118D8"/>
</linearGradient>
</defs>
</svg>
